<svg width="87" height="87" viewBox="0 0 87 87" fill="none" xmlns="http://www.w3.org/2000/svg">
<rect x="37.668" y="4" width="46" height="46" fill="url(#paint0_linear_4124_925)"/>
<path d="M83.6016 2.39844C84.1538 2.39844 84.6016 2.84615 84.6016 3.39844V70.0078C84.6016 70.5601 84.1538 71.0078 83.6016 71.0078H38.3828V83.6016C38.3828 84.1538 37.9351 84.6016 37.3828 84.6016H3.39844C2.84615 84.6016 2.39844 84.1538 2.39844 83.6016V49.6172C2.39844 49.0649 2.84615 48.6172 3.39844 48.6172H15.9922V3.39844C15.9922 2.84615 16.4399 2.39844 16.9922 2.39844H83.6016ZM4.39844 82.6016H36.3828V71.0078H16.9922C16.4399 71.0078 15.9922 70.5601 15.9922 70.0078V50.6172H4.39844V82.6016ZM17.9922 48.6172H37.3828C37.9351 48.6172 38.3828 49.0649 38.3828 49.6172V69.0078H82.6016V4.39844H17.9922V48.6172ZM17.9922 69.0078H36.3828V50.6172H17.9922V69.0078Z" fill="url(#paint1_linear_4124_925)"/>
<path d="M46.2188 40.7812L70.0078 16.9922M70.0078 16.9922H56.4141M70.0078 16.9922V30.5859" stroke="#58E6FF" stroke-width="2" stroke-miterlimit="10" stroke-linecap="round" stroke-linejoin="round"/>
<defs>
<linearGradient id="paint0_linear_4124_925" x1="60.668" y1="4" x2="60.668" y2="50" gradientUnits="userSpaceOnUse">
<stop stop-color="white" stop-opacity="0.36"/>
<stop offset="1" stop-color="#999999" stop-opacity="0.15"/>
</linearGradient>
<linearGradient id="paint1_linear_4124_925" x1="84.6667" y1="1.99999" x2="7.66675" y2="82" gradientUnits="userSpaceOnUse">
<stop stop-color="white"/>
<stop offset="1" stop-color="white" stop-opacity="0"/>
</linearGradient>
</defs>
</svg>
