<svg width="87" height="87" viewBox="0 0 87 87" fill="none" xmlns="http://www.w3.org/2000/svg">
<path d="M16.1217 84.419L14.5469 72.4569L26.509 70.882M70.8858 2.58093L72.4607 14.5431L60.4985 16.1179" stroke="#58E6FF" stroke-width="2" stroke-miterlimit="10" stroke-linecap="round" stroke-linejoin="round"/>
<path d="M72.4588 14.5431C65.0482 7.13247 54.8104 2.54883 43.502 2.54883C20.8854 2.54883 2.55078 20.8832 2.55078 43.5C2.55078 49.8219 3.98543 55.8078 6.54361 61.1537M14.5451 72.4569C21.9557 79.8675 32.1937 84.4512 43.502 84.4512C66.1186 84.4512 84.4531 66.1166 84.4531 43.5C84.4531 37.1781 83.0185 31.192 80.4603 25.8463" stroke="#58E6FF" stroke-width="2" stroke-miterlimit="10" stroke-linecap="round" stroke-linejoin="round"/>
<circle cx="43.8359" cy="43.5" r="16.5" fill="url(#paint0_linear_4124_936)"/>
<path d="M67.0771 36.756L61.1298 26.455L59.8564 27.1902C55.2308 29.8609 49.4487 26.5226 49.4487 21.1813V19.7109H37.5542V21.1813C37.5542 26.5224 31.7721 29.8607 27.1464 27.1902L25.873 26.455L19.9258 36.756L21.199 37.4911C25.8246 40.1617 25.8246 46.8383 21.199 49.5089L19.9258 50.244L25.873 60.545L27.1464 59.8098C31.7721 57.1391 37.5542 60.4774 37.5542 65.8187V67.2891H49.4487V65.8187C49.4487 60.4776 55.2308 57.1393 59.8564 59.8098L61.1298 60.545L67.0771 50.244L65.8038 49.5089C61.1782 46.8383 61.1782 40.1617 65.8038 37.4911L67.0771 36.756Z" stroke="url(#paint1_linear_4124_936)" stroke-width="2" stroke-miterlimit="10" stroke-linecap="round" stroke-linejoin="round"/>
<path d="M43.5 51.9961C48.1923 51.9961 51.9961 48.1923 51.9961 43.5C51.9961 38.8077 48.1923 35.0039 43.5 35.0039C38.8077 35.0039 35.0039 38.8077 35.0039 43.5C35.0039 48.1923 38.8077 51.9961 43.5 51.9961Z" stroke="url(#paint2_linear_4124_936)" stroke-width="2" stroke-miterlimit="10" stroke-linecap="round" stroke-linejoin="round"/>
<defs>
<linearGradient id="paint0_linear_4124_936" x1="43.8359" y1="27" x2="43.8359" y2="60" gradientUnits="userSpaceOnUse">
<stop stop-color="white" stop-opacity="0.36"/>
<stop offset="1" stop-color="#999999" stop-opacity="0.15"/>
</linearGradient>
<linearGradient id="paint1_linear_4124_936" x1="43.5014" y1="19.7109" x2="43.5014" y2="67.2891" gradientUnits="userSpaceOnUse">
<stop stop-color="white"/>
<stop offset="1" stop-color="white" stop-opacity="0"/>
</linearGradient>
<linearGradient id="paint2_linear_4124_936" x1="43.5" y1="35.0039" x2="43.5" y2="51.9961" gradientUnits="userSpaceOnUse">
<stop stop-color="white"/>
<stop offset="1" stop-color="white" stop-opacity="0"/>
</linearGradient>
</defs>
</svg>
