<svg width="412" height="160" viewBox="0 0 412 160" fill="none" xmlns="http://www.w3.org/2000/svg">
<path d="M1.04577 153.236L0 153.169L0.0690305 149.244L1.11272 149.307L1.04577 153.236ZM96.244 157.165L97.0367 158.446L96.7104 159.161L96.2105 159.129L96.244 157.165ZM167.356 1.96455L166.563 0.68364L166.877 -1.52588e-05H167.356V1.96455ZM409.974 -1.52588e-05C410.551 -1.52588e-05 411.02 0.880112 411.02 1.96455C411.02 3.049 410.551 3.92911 409.974 3.92911V-1.52588e-05ZM1.11272 149.307L96.2775 155.2L96.2105 159.129L1.04577 153.236L1.11272 149.307ZM95.4513 155.884L166.563 0.68364L168.149 3.24545L97.0367 158.446L95.4513 155.884ZM167.356 -1.52588e-05H409.974V3.92911H167.356V-1.52588e-05Z" fill="url(#paint0_linear_4124_1336)" fill-opacity="0.9"/>
<defs>
<linearGradient id="paint0_linear_4124_1336" x1="52.3218" y1="13.7519" x2="267.76" y2="-105.606" gradientUnits="userSpaceOnUse">
<stop stop-color="#24FF95" stop-opacity="0"/>
<stop offset="0.541667" stop-color="#24FF95"/>
<stop offset="0.838485" stop-color="#24FF95"/>
<stop offset="0.958333" stop-color="#24FF95" stop-opacity="0"/>
</linearGradient>
</defs>
</svg>
