<svg width="87" height="87" viewBox="0 0 87 87" fill="none" xmlns="http://www.w3.org/2000/svg">
<path d="M72.387 34.3335L72.3869 38.9328L78.8935 51.9461C79.0843 52.3278 79.1837 52.7488 79.1837 53.1756C79.1837 54.694 77.9528 55.9249 76.4342 55.9249H68.9884V67.8184C68.9884 70.6337 66.7061 72.916 63.8908 72.916H53.6955V83.4512H19.7112V59.3234C15.9808 56.1271 12.9862 52.1615 10.933 47.6987C8.87977 43.236 7.81658 38.3817 7.81641 33.4693V33.3424C7.81573 15.7829 22.0511 1.54789 39.6104 1.54908H39.6106C57.7133 1.55027 72.3875 16.2308 72.387 34.3335Z" stroke="url(#paint0_linear_4124_917)" stroke-width="2" stroke-miterlimit="10" stroke-linecap="round" stroke-linejoin="round"/>
<circle cx="40" cy="32.5" r="14.5" fill="url(#paint1_linear_4124_917)"/>
<path d="M39.9187 39.1017C36.1648 39.1017 33.1218 36.0586 33.1218 32.3049C33.1218 28.551 36.1648 25.508 39.9187 25.508C43.6724 25.508 46.7155 28.551 46.7155 32.3049C46.7155 36.0586 43.6724 39.1017 39.9187 39.1017ZM56.9108 32.3049C56.9108 31.0376 56.7614 29.807 56.4982 28.6189L60.1262 26.5243L55.0286 17.6949L51.3902 19.7954C49.579 18.1338 47.4188 16.848 45.0163 16.093V11.9143H34.821V16.093C32.4183 16.848 30.2581 18.1338 28.4469 19.7954L24.8086 17.6949L19.7109 26.5243L23.3389 28.6189C23.0759 29.807 22.9265 31.0376 22.9265 32.3049C22.9265 33.5721 23.0759 34.8027 23.3389 35.9908L19.7109 38.0854L24.8086 46.9149L28.4469 44.8141C30.2581 46.4758 32.4183 47.7619 34.821 48.5167V52.6954H45.0163V48.5167C47.4188 47.7619 49.579 46.4758 51.3902 44.8141L55.0286 46.9149L60.1262 38.0854L56.4982 35.9908C56.7614 34.8027 56.9108 33.5721 56.9108 32.3049Z" stroke="#58E6FF" stroke-width="2" stroke-miterlimit="10" stroke-linecap="round" stroke-linejoin="round"/>
<defs>
<linearGradient id="paint0_linear_4124_917" x1="43.5001" y1="1.54908" x2="43.5001" y2="83.4512" gradientUnits="userSpaceOnUse">
<stop stop-color="white"/>
<stop offset="1" stop-color="#999999" stop-opacity="0"/>
</linearGradient>
<linearGradient id="paint1_linear_4124_917" x1="40" y1="18" x2="40" y2="47" gradientUnits="userSpaceOnUse">
<stop stop-color="white" stop-opacity="0.36"/>
<stop offset="1" stop-color="#999999" stop-opacity="0.15"/>
</linearGradient>
</defs>
</svg>
