<svg width="412" height="160" viewBox="0 0 412 160" fill="none" xmlns="http://www.w3.org/2000/svg">
<path d="M1.04577 5.9251L0 5.99188L0.0690305 9.91711L1.11272 9.85422L1.04577 5.9251ZM96.244 1.99598L97.0367 0.715067L96.7104 0L96.2105 0.0314157L96.244 1.99598ZM167.356 157.196L166.563 158.477L166.877 159.161H167.356V157.196ZM409.974 159.161C410.551 159.161 411.02 158.281 411.02 157.196C411.02 156.112 410.551 155.232 409.974 155.232V159.161ZM1.11272 9.85422L96.2775 3.96054L96.2105 0.0314157L1.04577 5.9251L1.11272 9.85422ZM95.4513 3.27688L166.563 158.477L168.149 155.915L97.0367 0.715067L95.4513 3.27688ZM167.356 159.161H409.974V155.232H167.356V159.161Z" fill="url(#paint0_linear_4124_1335)" fill-opacity="0.9"/>
<defs>
<linearGradient id="paint0_linear_4124_1335" x1="52.3218" y1="145.409" x2="267.76" y2="264.766" gradientUnits="userSpaceOnUse">
<stop stop-color="#24FF95" stop-opacity="0"/>
<stop offset="0.541667" stop-color="#24FF95"/>
<stop offset="0.838485" stop-color="#24FF95"/>
<stop offset="0.958333" stop-color="#24FF95" stop-opacity="0"/>
</linearGradient>
</defs>
</svg>
